<mxfile host="app.diagrams.net" agent="Mozilla/5.0 (Macintosh; Intel Mac OS X 10_15_7) AppleWebKit/537.36 (KHTML, like Gecko) Chrome/141.0.0.0 Safari/537.36" version="28.2.7">
  <diagram name="Page-1" id="5zpKH62Tn0x-iUxS7F6e">
    <mxGraphModel dx="946" dy="644" grid="1" gridSize="10" guides="1" tooltips="1" connect="1" arrows="1" fold="1" page="1" pageScale="1" pageWidth="850" pageHeight="1100" math="0" shadow="0">
      <root>
        <mxCell id="0" />
        <mxCell id="1" parent="0" />
        <mxCell id="MTHJFyG3nIGwtjDn0t1B-1" value="&lt;font style=&quot;font-size: 16px;&quot;&gt;Movies Server&lt;/font&gt;" style="rounded=1;whiteSpace=wrap;html=1;" vertex="1" parent="1">
          <mxGeometry x="80" y="380" width="120" height="60" as="geometry" />
        </mxCell>
        <mxCell id="MTHJFyG3nIGwtjDn0t1B-2" value="&lt;font size=&quot;3&quot;&gt;Database&lt;/font&gt;" style="rounded=1;whiteSpace=wrap;html=1;" vertex="1" parent="1">
          <mxGeometry x="80" y="230" width="120" height="60" as="geometry" />
        </mxCell>
        <mxCell id="MTHJFyG3nIGwtjDn0t1B-3" value="" style="endArrow=classic;html=1;rounded=0;entryX=0.5;entryY=0;entryDx=0;entryDy=0;" edge="1" parent="1" target="MTHJFyG3nIGwtjDn0t1B-1">
          <mxGeometry relative="1" as="geometry">
            <mxPoint x="139.5" y="290" as="sourcePoint" />
            <mxPoint x="140" y="370" as="targetPoint" />
          </mxGeometry>
        </mxCell>
        <mxCell id="MTHJFyG3nIGwtjDn0t1B-5" value="Source" style="edgeLabel;resizable=0;html=1;;align=left;verticalAlign=bottom;" connectable="0" vertex="1" parent="MTHJFyG3nIGwtjDn0t1B-3">
          <mxGeometry x="-1" relative="1" as="geometry" />
        </mxCell>
        <mxCell id="MTHJFyG3nIGwtjDn0t1B-6" value="UPDATE" style="rounded=1;whiteSpace=wrap;html=1;" vertex="1" parent="1">
          <mxGeometry x="280" y="390" width="120" height="60" as="geometry" />
        </mxCell>
        <mxCell id="MTHJFyG3nIGwtjDn0t1B-7" value="DELETE" style="rounded=1;whiteSpace=wrap;html=1;" vertex="1" parent="1">
          <mxGeometry x="280" y="500" width="120" height="60" as="geometry" />
        </mxCell>
        <mxCell id="MTHJFyG3nIGwtjDn0t1B-8" value="GET BY ID" style="rounded=1;whiteSpace=wrap;html=1;" vertex="1" parent="1">
          <mxGeometry x="280" y="180" width="120" height="60" as="geometry" />
        </mxCell>
        <mxCell id="MTHJFyG3nIGwtjDn0t1B-9" value="GET ALL" style="rounded=1;whiteSpace=wrap;html=1;" vertex="1" parent="1">
          <mxGeometry x="280" y="70" width="120" height="60" as="geometry" />
        </mxCell>
        <mxCell id="MTHJFyG3nIGwtjDn0t1B-10" value="CREATE" style="rounded=1;whiteSpace=wrap;html=1;" vertex="1" parent="1">
          <mxGeometry x="280" y="290" width="120" height="60" as="geometry" />
        </mxCell>
        <mxCell id="MTHJFyG3nIGwtjDn0t1B-11" value="getMovies" style="rounded=1;whiteSpace=wrap;html=1;" vertex="1" parent="1">
          <mxGeometry x="470" y="70" width="120" height="60" as="geometry" />
        </mxCell>
        <mxCell id="MTHJFyG3nIGwtjDn0t1B-12" value="getMovie" style="rounded=1;whiteSpace=wrap;html=1;" vertex="1" parent="1">
          <mxGeometry x="470" y="180" width="120" height="60" as="geometry" />
        </mxCell>
        <mxCell id="MTHJFyG3nIGwtjDn0t1B-13" value="createMovie" style="rounded=1;whiteSpace=wrap;html=1;" vertex="1" parent="1">
          <mxGeometry x="470" y="290" width="120" height="60" as="geometry" />
        </mxCell>
        <mxCell id="MTHJFyG3nIGwtjDn0t1B-14" value="updateMovie" style="rounded=1;whiteSpace=wrap;html=1;" vertex="1" parent="1">
          <mxGeometry x="470" y="390" width="120" height="60" as="geometry" />
        </mxCell>
        <mxCell id="MTHJFyG3nIGwtjDn0t1B-15" value="deleteMovie" style="rounded=1;whiteSpace=wrap;html=1;" vertex="1" parent="1">
          <mxGeometry x="470" y="500" width="120" height="60" as="geometry" />
        </mxCell>
        <mxCell id="MTHJFyG3nIGwtjDn0t1B-16" value="/movies" style="rounded=1;whiteSpace=wrap;html=1;" vertex="1" parent="1">
          <mxGeometry x="650" y="70" width="120" height="60" as="geometry" />
        </mxCell>
        <mxCell id="MTHJFyG3nIGwtjDn0t1B-17" value="/movies/id" style="rounded=1;whiteSpace=wrap;html=1;" vertex="1" parent="1">
          <mxGeometry x="650" y="500" width="120" height="60" as="geometry" />
        </mxCell>
        <mxCell id="MTHJFyG3nIGwtjDn0t1B-18" value="/movies/id" style="rounded=1;whiteSpace=wrap;html=1;" vertex="1" parent="1">
          <mxGeometry x="650" y="390" width="120" height="60" as="geometry" />
        </mxCell>
        <mxCell id="MTHJFyG3nIGwtjDn0t1B-19" value="/movies" style="rounded=1;whiteSpace=wrap;html=1;" vertex="1" parent="1">
          <mxGeometry x="650" y="290" width="120" height="60" as="geometry" />
        </mxCell>
        <mxCell id="MTHJFyG3nIGwtjDn0t1B-20" value="/movies/id" style="rounded=1;whiteSpace=wrap;html=1;" vertex="1" parent="1">
          <mxGeometry x="650" y="180" width="120" height="60" as="geometry" />
        </mxCell>
        <mxCell id="MTHJFyG3nIGwtjDn0t1B-21" value="GET" style="rounded=1;whiteSpace=wrap;html=1;" vertex="1" parent="1">
          <mxGeometry x="830" y="70" width="120" height="60" as="geometry" />
        </mxCell>
        <mxCell id="MTHJFyG3nIGwtjDn0t1B-22" value="DELETE" style="rounded=1;whiteSpace=wrap;html=1;" vertex="1" parent="1">
          <mxGeometry x="830" y="500" width="120" height="60" as="geometry" />
        </mxCell>
        <mxCell id="MTHJFyG3nIGwtjDn0t1B-23" value="PUT" style="rounded=1;whiteSpace=wrap;html=1;" vertex="1" parent="1">
          <mxGeometry x="830" y="390" width="120" height="60" as="geometry" />
        </mxCell>
        <mxCell id="MTHJFyG3nIGwtjDn0t1B-24" value="POST" style="rounded=1;whiteSpace=wrap;html=1;" vertex="1" parent="1">
          <mxGeometry x="830" y="290" width="120" height="60" as="geometry" />
        </mxCell>
        <mxCell id="MTHJFyG3nIGwtjDn0t1B-25" value="GET" style="rounded=1;whiteSpace=wrap;html=1;" vertex="1" parent="1">
          <mxGeometry x="830" y="180" width="120" height="60" as="geometry" />
        </mxCell>
        <mxCell id="MTHJFyG3nIGwtjDn0t1B-27" value="" style="endArrow=classic;html=1;rounded=0;" edge="1" parent="1">
          <mxGeometry relative="1" as="geometry">
            <mxPoint x="220" y="100" as="sourcePoint" />
            <mxPoint x="280" y="100" as="targetPoint" />
          </mxGeometry>
        </mxCell>
        <mxCell id="MTHJFyG3nIGwtjDn0t1B-31" value="" style="endArrow=none;html=1;rounded=0;" edge="1" parent="1">
          <mxGeometry width="50" height="50" relative="1" as="geometry">
            <mxPoint x="220" y="530" as="sourcePoint" />
            <mxPoint x="220" y="100" as="targetPoint" />
          </mxGeometry>
        </mxCell>
        <mxCell id="MTHJFyG3nIGwtjDn0t1B-66" value="GORILLA&lt;div&gt;MUX&lt;/div&gt;" style="edgeLabel;html=1;align=center;verticalAlign=middle;resizable=0;points=[];" vertex="1" connectable="0" parent="MTHJFyG3nIGwtjDn0t1B-31">
          <mxGeometry x="-0.1721" relative="1" as="geometry">
            <mxPoint as="offset" />
          </mxGeometry>
        </mxCell>
        <mxCell id="MTHJFyG3nIGwtjDn0t1B-32" value="" style="endArrow=classic;html=1;rounded=0;" edge="1" parent="1">
          <mxGeometry relative="1" as="geometry">
            <mxPoint x="220" y="529.5" as="sourcePoint" />
            <mxPoint x="280" y="529.5" as="targetPoint" />
          </mxGeometry>
        </mxCell>
        <mxCell id="MTHJFyG3nIGwtjDn0t1B-35" value="" style="endArrow=classic;html=1;rounded=0;" edge="1" parent="1">
          <mxGeometry relative="1" as="geometry">
            <mxPoint x="220" y="209.5" as="sourcePoint" />
            <mxPoint x="280" y="209.5" as="targetPoint" />
          </mxGeometry>
        </mxCell>
        <mxCell id="MTHJFyG3nIGwtjDn0t1B-36" value="" style="endArrow=classic;html=1;rounded=0;" edge="1" parent="1">
          <mxGeometry relative="1" as="geometry">
            <mxPoint x="220" y="319.5" as="sourcePoint" />
            <mxPoint x="280" y="319.5" as="targetPoint" />
          </mxGeometry>
        </mxCell>
        <mxCell id="MTHJFyG3nIGwtjDn0t1B-37" value="" style="endArrow=classic;html=1;rounded=0;" edge="1" parent="1">
          <mxGeometry relative="1" as="geometry">
            <mxPoint x="200" y="420" as="sourcePoint" />
            <mxPoint x="280" y="419.5" as="targetPoint" />
            <Array as="points">
              <mxPoint x="250" y="420" />
            </Array>
          </mxGeometry>
        </mxCell>
        <mxCell id="MTHJFyG3nIGwtjDn0t1B-38" value="" style="endArrow=classic;html=1;rounded=0;" edge="1" parent="1">
          <mxGeometry relative="1" as="geometry">
            <mxPoint x="590" y="99.5" as="sourcePoint" />
            <mxPoint x="650" y="99.5" as="targetPoint" />
            <Array as="points">
              <mxPoint x="620" y="100" />
            </Array>
          </mxGeometry>
        </mxCell>
        <mxCell id="MTHJFyG3nIGwtjDn0t1B-39" value="" style="endArrow=classic;html=1;rounded=0;" edge="1" parent="1">
          <mxGeometry relative="1" as="geometry">
            <mxPoint x="590" y="209.5" as="sourcePoint" />
            <mxPoint x="650" y="209.5" as="targetPoint" />
            <Array as="points">
              <mxPoint x="620" y="210" />
            </Array>
          </mxGeometry>
        </mxCell>
        <mxCell id="MTHJFyG3nIGwtjDn0t1B-40" value="" style="endArrow=classic;html=1;rounded=0;" edge="1" parent="1">
          <mxGeometry relative="1" as="geometry">
            <mxPoint x="590" y="319.5" as="sourcePoint" />
            <mxPoint x="650" y="319.5" as="targetPoint" />
            <Array as="points">
              <mxPoint x="620" y="320" />
            </Array>
          </mxGeometry>
        </mxCell>
        <mxCell id="MTHJFyG3nIGwtjDn0t1B-41" value="" style="endArrow=classic;html=1;rounded=0;" edge="1" parent="1">
          <mxGeometry relative="1" as="geometry">
            <mxPoint x="590" y="419.5" as="sourcePoint" />
            <mxPoint x="650" y="419.5" as="targetPoint" />
            <Array as="points">
              <mxPoint x="620" y="420" />
            </Array>
          </mxGeometry>
        </mxCell>
        <mxCell id="MTHJFyG3nIGwtjDn0t1B-42" value="" style="endArrow=classic;html=1;rounded=0;" edge="1" parent="1">
          <mxGeometry relative="1" as="geometry">
            <mxPoint x="590" y="529.5" as="sourcePoint" />
            <mxPoint x="650" y="529.5" as="targetPoint" />
            <Array as="points">
              <mxPoint x="620" y="530" />
            </Array>
          </mxGeometry>
        </mxCell>
        <mxCell id="MTHJFyG3nIGwtjDn0t1B-43" value="" style="endArrow=classic;html=1;rounded=0;" edge="1" parent="1">
          <mxGeometry relative="1" as="geometry">
            <mxPoint x="770" y="99.5" as="sourcePoint" />
            <mxPoint x="830" y="99.5" as="targetPoint" />
            <Array as="points">
              <mxPoint x="800" y="100" />
            </Array>
          </mxGeometry>
        </mxCell>
        <mxCell id="MTHJFyG3nIGwtjDn0t1B-44" value="" style="endArrow=classic;html=1;rounded=0;" edge="1" parent="1">
          <mxGeometry relative="1" as="geometry">
            <mxPoint x="770" y="209.5" as="sourcePoint" />
            <mxPoint x="830" y="209.5" as="targetPoint" />
            <Array as="points">
              <mxPoint x="800" y="210" />
            </Array>
          </mxGeometry>
        </mxCell>
        <mxCell id="MTHJFyG3nIGwtjDn0t1B-45" value="" style="endArrow=classic;html=1;rounded=0;" edge="1" parent="1">
          <mxGeometry relative="1" as="geometry">
            <mxPoint x="770" y="319.5" as="sourcePoint" />
            <mxPoint x="830" y="319.5" as="targetPoint" />
            <Array as="points">
              <mxPoint x="800" y="320" />
            </Array>
          </mxGeometry>
        </mxCell>
        <mxCell id="MTHJFyG3nIGwtjDn0t1B-46" value="" style="endArrow=classic;html=1;rounded=0;" edge="1" parent="1">
          <mxGeometry relative="1" as="geometry">
            <mxPoint x="770" y="419.5" as="sourcePoint" />
            <mxPoint x="830" y="419.5" as="targetPoint" />
            <Array as="points">
              <mxPoint x="800" y="420" />
            </Array>
          </mxGeometry>
        </mxCell>
        <mxCell id="MTHJFyG3nIGwtjDn0t1B-47" value="" style="endArrow=classic;html=1;rounded=0;" edge="1" parent="1">
          <mxGeometry relative="1" as="geometry">
            <mxPoint x="770" y="529.5" as="sourcePoint" />
            <mxPoint x="830" y="529.5" as="targetPoint" />
            <Array as="points">
              <mxPoint x="800" y="530" />
            </Array>
          </mxGeometry>
        </mxCell>
        <mxCell id="MTHJFyG3nIGwtjDn0t1B-48" value="" style="endArrow=none;html=1;rounded=0;" edge="1" parent="1">
          <mxGeometry width="50" height="50" relative="1" as="geometry">
            <mxPoint x="1010" y="530" as="sourcePoint" />
            <mxPoint x="1010" y="100" as="targetPoint" />
          </mxGeometry>
        </mxCell>
        <mxCell id="MTHJFyG3nIGwtjDn0t1B-49" value="" style="endArrow=classic;html=1;rounded=0;" edge="1" parent="1">
          <mxGeometry relative="1" as="geometry">
            <mxPoint x="1010" y="100" as="sourcePoint" />
            <mxPoint x="950" y="99.5" as="targetPoint" />
          </mxGeometry>
        </mxCell>
        <mxCell id="MTHJFyG3nIGwtjDn0t1B-51" value="" style="endArrow=classic;html=1;rounded=0;" edge="1" parent="1">
          <mxGeometry relative="1" as="geometry">
            <mxPoint x="1010" y="530" as="sourcePoint" />
            <mxPoint x="950" y="529.5" as="targetPoint" />
          </mxGeometry>
        </mxCell>
        <mxCell id="MTHJFyG3nIGwtjDn0t1B-52" value="" style="endArrow=classic;html=1;rounded=0;" edge="1" parent="1">
          <mxGeometry relative="1" as="geometry">
            <mxPoint x="1010" y="420" as="sourcePoint" />
            <mxPoint x="950" y="419.5" as="targetPoint" />
          </mxGeometry>
        </mxCell>
        <mxCell id="MTHJFyG3nIGwtjDn0t1B-53" value="" style="endArrow=classic;html=1;rounded=0;" edge="1" parent="1">
          <mxGeometry relative="1" as="geometry">
            <mxPoint x="1010" y="320" as="sourcePoint" />
            <mxPoint x="950" y="319.5" as="targetPoint" />
          </mxGeometry>
        </mxCell>
        <mxCell id="MTHJFyG3nIGwtjDn0t1B-54" value="" style="endArrow=classic;html=1;rounded=0;" edge="1" parent="1">
          <mxGeometry relative="1" as="geometry">
            <mxPoint x="1010" y="210" as="sourcePoint" />
            <mxPoint x="950" y="209.5" as="targetPoint" />
          </mxGeometry>
        </mxCell>
        <mxCell id="MTHJFyG3nIGwtjDn0t1B-55" value="" style="endArrow=none;html=1;rounded=0;entryX=0;entryY=0.5;entryDx=0;entryDy=0;" edge="1" parent="1" target="MTHJFyG3nIGwtjDn0t1B-11">
          <mxGeometry width="50" height="50" relative="1" as="geometry">
            <mxPoint x="400" y="100" as="sourcePoint" />
            <mxPoint x="450" y="50" as="targetPoint" />
          </mxGeometry>
        </mxCell>
        <mxCell id="MTHJFyG3nIGwtjDn0t1B-56" value="" style="endArrow=none;html=1;rounded=0;entryX=0;entryY=0.5;entryDx=0;entryDy=0;" edge="1" parent="1">
          <mxGeometry width="50" height="50" relative="1" as="geometry">
            <mxPoint x="400" y="209.5" as="sourcePoint" />
            <mxPoint x="470" y="209.5" as="targetPoint" />
          </mxGeometry>
        </mxCell>
        <mxCell id="MTHJFyG3nIGwtjDn0t1B-57" value="" style="endArrow=none;html=1;rounded=0;entryX=0;entryY=0.5;entryDx=0;entryDy=0;" edge="1" parent="1">
          <mxGeometry width="50" height="50" relative="1" as="geometry">
            <mxPoint x="400" y="319.5" as="sourcePoint" />
            <mxPoint x="470" y="319.5" as="targetPoint" />
          </mxGeometry>
        </mxCell>
        <mxCell id="MTHJFyG3nIGwtjDn0t1B-58" value="" style="endArrow=none;html=1;rounded=0;entryX=0;entryY=0.5;entryDx=0;entryDy=0;" edge="1" parent="1">
          <mxGeometry width="50" height="50" relative="1" as="geometry">
            <mxPoint x="400" y="419.5" as="sourcePoint" />
            <mxPoint x="470" y="419.5" as="targetPoint" />
          </mxGeometry>
        </mxCell>
        <mxCell id="MTHJFyG3nIGwtjDn0t1B-59" value="" style="endArrow=none;html=1;rounded=0;entryX=0;entryY=0.5;entryDx=0;entryDy=0;" edge="1" parent="1">
          <mxGeometry width="50" height="50" relative="1" as="geometry">
            <mxPoint x="400" y="529.5" as="sourcePoint" />
            <mxPoint x="470" y="529.5" as="targetPoint" />
          </mxGeometry>
        </mxCell>
        <mxCell id="MTHJFyG3nIGwtjDn0t1B-60" value="" style="endArrow=none;html=1;rounded=0;" edge="1" parent="1">
          <mxGeometry width="50" height="50" relative="1" as="geometry">
            <mxPoint x="115" y="360" as="sourcePoint" />
            <mxPoint x="165" y="310" as="targetPoint" />
          </mxGeometry>
        </mxCell>
        <mxCell id="MTHJFyG3nIGwtjDn0t1B-61" value="" style="endArrow=none;html=1;rounded=0;" edge="1" parent="1">
          <mxGeometry width="50" height="50" relative="1" as="geometry">
            <mxPoint x="170" y="360" as="sourcePoint" />
            <mxPoint x="110" y="310" as="targetPoint" />
          </mxGeometry>
        </mxCell>
        <mxCell id="MTHJFyG3nIGwtjDn0t1B-62" value="Routes" style="text;html=1;whiteSpace=wrap;strokeColor=none;fillColor=none;align=center;verticalAlign=middle;rounded=0;" vertex="1" parent="1">
          <mxGeometry x="300" y="40" width="60" height="30" as="geometry" />
        </mxCell>
        <mxCell id="MTHJFyG3nIGwtjDn0t1B-63" value="Functions" style="text;html=1;whiteSpace=wrap;strokeColor=none;fillColor=none;align=center;verticalAlign=middle;rounded=0;" vertex="1" parent="1">
          <mxGeometry x="510" y="40" width="60" height="30" as="geometry" />
        </mxCell>
        <mxCell id="MTHJFyG3nIGwtjDn0t1B-64" value="Endpoints" style="text;html=1;whiteSpace=wrap;strokeColor=none;fillColor=none;align=center;verticalAlign=middle;rounded=0;" vertex="1" parent="1">
          <mxGeometry x="690" y="40" width="60" height="30" as="geometry" />
        </mxCell>
        <mxCell id="MTHJFyG3nIGwtjDn0t1B-65" value="Methods" style="text;html=1;whiteSpace=wrap;strokeColor=none;fillColor=none;align=center;verticalAlign=middle;rounded=0;" vertex="1" parent="1">
          <mxGeometry x="860" y="30" width="60" height="30" as="geometry" />
        </mxCell>
        <mxCell id="MTHJFyG3nIGwtjDn0t1B-67" value="LOCALHOST 8080" style="text;html=1;whiteSpace=wrap;strokeColor=none;fillColor=none;align=center;verticalAlign=middle;rounded=0;" vertex="1" parent="1">
          <mxGeometry x="100" y="460" width="60" height="30" as="geometry" />
        </mxCell>
      </root>
    </mxGraphModel>
  </diagram>
</mxfile>
